<?xml version="1.0" encoding="UTF-8" standalone="no"?>
<svg
   height="40"
   viewBox="0 -960 960 960"
   width="40"
   version="1.1"
   id="svg4"
   sodipodi:docname="calendar_40.svg"
   inkscape:version="1.2.2 (732a01da63, 2022-12-09)"
   xmlns:inkscape="http://www.inkscape.org/namespaces/inkscape"
   xmlns:sodipodi="http://sodipodi.sourceforge.net/DTD/sodipodi-0.dtd"
   xmlns="http://www.w3.org/2000/svg"
   xmlns:svg="http://www.w3.org/2000/svg">
  <defs
     id="defs8" />
  <sodipodi:namedview
     id="namedview6"
     pagecolor="#ffffff"
     bordercolor="#000000"
     borderopacity="0.25"
     inkscape:showpageshadow="2"
     inkscape:pageopacity="0.0"
     inkscape:pagecheckerboard="0"
     inkscape:deskcolor="#d1d1d1"
     showgrid="true"
     inkscape:zoom="2.8284271"
     inkscape:cx="-19.622213"
     inkscape:cy="61.164736"
     inkscape:window-width="1920"
     inkscape:window-height="1009"
     inkscape:window-x="-8"
     inkscape:window-y="-8"
     inkscape:window-maximized="1"
     inkscape:current-layer="svg4">
    <inkscape:grid
       type="xygrid"
       id="grid291" />
  </sodipodi:namedview>
  <path
     d="M 149.14385,-24 Q 118.38495,-24 96.452479,-45.932476 74.52,-67.864951 74.52,-98.62385 v -673.44914 q 0,-30.75891 21.932479,-52.69138 21.932471,-21.93128 52.691371,-21.93128 h 80.74152 V -936 h 64.53072 v 89.30435 H 667.53416 V -936 h 63.0004 v 89.30435 h 80.43618 q 30.7589,0 52.69138,21.93128 21.93247,21.93247 21.93247,52.69138 v 673.44914 q 0,30.758899 -21.93247,52.691374 Q 841.72964,-24 810.97074,-24 Z m 0,-59.942167 h 661.82689 q 5.50578,0 10.09314,-4.588553 4.58854,-4.58735 4.58854,-10.09313 V -563.79797 H 134.46217 v 465.17412 q 0,5.50578 4.58855,10.09313 4.58735,4.588553 10.09313,4.588553 z M 134.46217,-623.74014 h 691.19025 v -148.33285 q 0,-5.50459 -4.58854,-10.09314 -4.58736,-4.58736 -10.09314,-4.58736 H 149.14385 q -5.50578,0 -10.09313,4.58736 -4.58855,4.58855 -4.58855,10.09314 z m 0,0 v -163.01335 z m 345.59513,245.58338 q -17.52404,0 -29.86434,-12.3403 -12.34029,-12.3403 -12.34029,-29.86433 0,-17.52403 12.34029,-29.86433 12.3403,-12.3403 29.86434,-12.3403 17.52403,0 29.86433,12.3403 12.34029,12.3403 12.34029,29.86433 0,17.52403 -12.34029,29.86433 -12.3403,12.3403 -29.86433,12.3403 z m -190.84165,0 q -17.52403,0 -29.86433,-12.3403 -12.3403,-12.3403 -12.3403,-29.86433 0,-17.52403 12.3403,-29.86433 12.3403,-12.3403 29.86433,-12.3403 17.52404,0 29.86434,12.3403 12.34029,12.3403 12.34029,29.86433 0,17.52403 -12.34029,29.86433 -12.3403,12.3403 -29.86434,12.3403 z m 381.68329,0 q -17.52404,0 -29.86433,-12.3403 -12.3403,-12.3403 -12.3403,-29.86433 0,-17.52403 12.3403,-29.86433 12.34029,-12.3403 29.86433,-12.3403 17.52403,0 29.86433,12.3403 12.3403,12.3403 12.3403,29.86433 0,17.52403 -12.3403,29.86433 -12.3403,12.3403 -29.86433,12.3403 z M 480.0573,-190.98524 q -17.52404,0 -29.86434,-12.3403 -12.34029,-12.3403 -12.34029,-29.86433 0,-17.52404 12.34029,-29.86433 12.3403,-12.34149 29.86434,-12.34149 17.52403,0 29.86433,12.34149 12.34029,12.34029 12.34029,29.86433 0,17.52403 -12.34029,29.86433 -12.3403,12.3403 -29.86433,12.3403 z m -190.84165,0 q -17.52403,0 -29.86433,-12.3403 -12.3403,-12.3403 -12.3403,-29.86433 0,-17.52404 12.3403,-29.86433 12.3403,-12.34149 29.86433,-12.34149 17.52404,0 29.86434,12.34149 12.34029,12.34029 12.34029,29.86433 0,17.52403 -12.34029,29.86433 -12.3403,12.3403 -29.86434,12.3403 z m 381.68329,0 q -17.52404,0 -29.86433,-12.3403 -12.3403,-12.3403 -12.3403,-29.86433 0,-17.52404 12.3403,-29.86433 12.34029,-12.34149 29.86433,-12.34149 17.52403,0 29.86433,12.34149 12.3403,12.34029 12.3403,29.86433 0,17.52403 -12.3403,29.86433 -12.3403,12.3403 -29.86433,12.3403 z"
     id="path2"
     style="stroke-width:1.19276" />
</svg>
