<?xml version="1.0" encoding="UTF-8" standalone="no"?>
<svg
   height="15"
   viewBox="0 -960 720 720"
   width="15"
   version="1.1"
   id="svg4"
   sodipodi:docname="call_15.svg"
   inkscape:version="1.2.2 (732a01da63, 2022-12-09)"
   xmlns:inkscape="http://www.inkscape.org/namespaces/inkscape"
   xmlns:sodipodi="http://sodipodi.sourceforge.net/DTD/sodipodi-0.dtd"
   xmlns="http://www.w3.org/2000/svg"
   xmlns:svg="http://www.w3.org/2000/svg">
  <defs
     id="defs8" />
  <sodipodi:namedview
     id="namedview6"
     pagecolor="#ffffff"
     bordercolor="#000000"
     borderopacity="0.25"
     inkscape:showpageshadow="2"
     inkscape:pageopacity="0.0"
     inkscape:pagecheckerboard="0"
     inkscape:deskcolor="#d1d1d1"
     showgrid="false"
     inkscape:zoom="14.654788"
     inkscape:cx="-6.7895899"
     inkscape:cy="15.421581"
     inkscape:window-width="1920"
     inkscape:window-height="1009"
     inkscape:window-x="-8"
     inkscape:window-y="-8"
     inkscape:window-maximized="1"
     inkscape:current-layer="svg4" />
  <path
     d="m 619.31107,-288.24279 q -107.6538,-8.89673 -206.95691,-56.9163 -99.30312,-48.01957 -179.81547,-128.85026 -80.51335,-80.83069 -127.47001,-179.60607 -46.95666,-98.77637 -56.826273,-206.60071 -1.973923,-20.92212 12.125807,-36.353 Q 74.467943,-912 95.616551,-912 H 198.71453 q 17.9173,0 30.82379,10.76009 12.9065,10.7601 17.99231,28.09685 l 20.65019,82.73063 q 2.3539,13.2314 -1.48044,25.85388 -3.83336,12.62247 -12.48901,20.53067 l -91.17944,88.89112 q 22.01714,41.36581 48.81708,77.86512 26.79995,36.50029 58.73111,68.2695 31.53835,31.5725 68.13192,58.49102 36.59356,26.91852 79.0329,48.96954 l 93.53334,-91.47611 q 8.27567,-8.66838 18.98025,-11.55784 10.70459,-2.88945 23.91506,-0.9124 l 79.03093,17.41286 q 17.9173,4.94263 28.35639,18.24916 Q 672,-456.51839 672,-438.19213 v 102.50015 q 0,21.18211 -15.89995,35.30417 -15.89994,14.12207 -36.78898,12.14502 z m -479.35824,-417.0794 74.40208,-71.47825 q 1.89793,-1.52134 2.4674,-4.18245 0.56948,-2.6621 -0.18949,-4.94263 l -17.31624,-68.58879 q -0.75897,-3.04169 -2.6569,-4.56205 -1.89891,-1.52134 -4.93579,-1.52134 h -85.25175 q -2.27692,0 -3.79585,1.52134 -1.51894,1.52036 -1.51894,3.80187 3.03688,37.56395 13.24798,74.93809 10.21209,37.37415 25.5475,75.01421 z m 329.6441,327.8848 q 35.4023,15.6009 74.03394,23.69296 38.63263,8.09207 71.73334,11.89394 2.27791,0 3.79585,-1.52036 1.51894,-1.52134 1.51894,-3.80285 v -85.16438 q 0,-3.04169 -1.51894,-4.94362 -1.51794,-1.90093 -4.55482,-2.6611 l -64.15249,-13.91547 q -2.27692,-0.76017 -3.98535,-0.1898 -1.70843,0.57038 -3.60636,2.47132 z m -329.6441,-327.8848 z m 329.6441,327.8848 z"
     id="path2"
     style="stroke-width:0.987742;fill:#bc2813;fill-opacity:1" />
</svg>
