<?xml version="1.0" encoding="UTF-8" standalone="no"?>
<svg
   height="40"
   viewBox="0 -960 960 960"
   width="40"
   version="1.1"
   id="svg4"
   sodipodi:docname="cd_40.svg"
   inkscape:version="1.2.2 (732a01da63, 2022-12-09)"
   xmlns:inkscape="http://www.inkscape.org/namespaces/inkscape"
   xmlns:sodipodi="http://sodipodi.sourceforge.net/DTD/sodipodi-0.dtd"
   xmlns="http://www.w3.org/2000/svg"
   xmlns:svg="http://www.w3.org/2000/svg">
  <defs
     id="defs8" />
  <sodipodi:namedview
     id="namedview6"
     pagecolor="#ffffff"
     bordercolor="#000000"
     borderopacity="0.25"
     inkscape:showpageshadow="2"
     inkscape:pageopacity="0.0"
     inkscape:pagecheckerboard="0"
     inkscape:deskcolor="#d1d1d1"
     showgrid="false"
     inkscape:zoom="5.18125"
     inkscape:cx="8.4921592"
     inkscape:cy="27.21351"
     inkscape:window-width="1920"
     inkscape:window-height="1009"
     inkscape:window-x="-8"
     inkscape:window-y="-8"
     inkscape:window-maximized="1"
     inkscape:current-layer="svg4" />
  <path
     d="m 480,-297.41712 q 77.22981,0 131.69195,-52.92254 54.46094,-52.92255 54.46094,-129.66034 0,-77.723 -54.21493,-131.93796 Q 557.723,-666.15289 480,-666.15289 q -76.73779,0 -129.66034,54.46094 -52.92254,54.46214 -52.92254,131.69195 0,76.73779 52.92254,129.66034 52.92255,52.92254 129.66034,52.92254 z m 0,-134.58274 q -20.40005,0 -34.20009,-13.80005 -13.80005,-13.80004 -13.80005,-34.20009 0,-20.40005 13.80005,-34.20009 13.80004,-13.80005 34.20009,-13.80005 20.40005,0 34.20009,13.80005 13.80005,13.80004 13.80005,34.20009 0,20.40005 -13.80005,34.20009 Q 500.40005,-431.99986 480,-431.99986 Z M 480.08038,-24 Q 385.96895,-24 302.88073,-59.904093 219.79252,-95.80819 157.81596,-157.75715 95.83939,-219.70613 59.919695,-302.75713 24,-385.80935 24,-479.91961 q 0,-94.60343 35.904086,-177.84526 35.904105,-83.24302 97.853064,-144.81878 61.94898,-61.57696 144.99998,-97.49666 Q 385.80935,-936 479.91961,-936 q 94.60343,0 177.84526,35.90409 83.24302,35.9041 144.81878,97.45226 61.57696,61.54936 97.49666,144.75518 Q 936,-574.68385 936,-480.08039 q 0,94.11144 -35.90409,177.19966 -35.9041,83.08821 -97.45226,145.06478 -61.54936,61.97656 -144.75518,97.896254 Q 574.68385,-24 480.08039,-24 Z M 480,-84.306159 q 165.35444,0 280.52354,-115.416301 115.1703,-115.41511 115.1703,-280.27754 0,-165.35444 -115.1703,-280.52354 Q 645.35444,-875.69384 480,-875.69384 q -164.86243,0 -280.27754,115.1703 Q 84.306156,-645.35444 84.306156,-480 q 0,164.86243 115.416304,280.27754 Q 315.13757,-84.306159 480,-84.306159 Z M 480,-480 Z"
     id="path2"
     style="stroke-width:1.2" />
</svg>
