<svg xmlns="http://www.w3.org/2000/svg" height="40" viewBox="0 -960 960 960" width="40"><path d="M140.001-163.642v-456.101q-14.358-3.462-27.179-20.487-12.821-17.026-12.821-38.436v-98.768q0-25.435 18.388-43.999 18.388-18.564 44.176-18.564h634.87q25.436 0 44 18.564t18.564 43.999v98.768q0 21.41-12.821 38.436-12.821 17.025-27.179 20.487v456.101q0 25.436-18.564 44.538-18.564 19.103-44 19.103h-554.87q-25.788 0-44.176-19.103-18.388-19.102-18.388-44.538Zm50.255-452.461v453.538q0 5.385 3.462 8.847 3.462 3.462 8.847 3.462h554.87q5.385 0 8.847-3.462 3.462-3.462 3.462-8.847v-453.538H190.256Zm607.179-50.255q5.385 0 8.847-3.461 3.462-3.462 3.462-8.847v-98.768q0-5.385-3.462-8.846-3.462-3.462-8.847-3.462h-634.87q-5.385 0-8.847 3.462-3.462 3.461-3.462 8.846v98.768q0 5.385 3.462 8.847 3.462 3.461 8.847 3.461h634.87ZM367.693-423.539h224.614v-50.255H367.693v50.255ZM190.256-150.256V-616.103v465.847Z"/></svg>