<?xml version="1.0" encoding="UTF-8" standalone="no"?>
<svg
   height="40"
   viewBox="0 -960 960 960"
   width="40"
   version="1.1"
   id="svg4"
   sodipodi:docname="publisher_40.svg"
   inkscape:version="1.2.2 (732a01da63, 2022-12-09)"
   xmlns:inkscape="http://www.inkscape.org/namespaces/inkscape"
   xmlns:sodipodi="http://sodipodi.sourceforge.net/DTD/sodipodi-0.dtd"
   xmlns="http://www.w3.org/2000/svg"
   xmlns:svg="http://www.w3.org/2000/svg">
  <defs
     id="defs8" />
  <sodipodi:namedview
     id="namedview6"
     pagecolor="#ffffff"
     bordercolor="#000000"
     borderopacity="0.25"
     inkscape:showpageshadow="2"
     inkscape:pageopacity="0.0"
     inkscape:pagecheckerboard="0"
     inkscape:deskcolor="#d1d1d1"
     showgrid="false"
     inkscape:zoom="5.18125"
     inkscape:cx="11.676719"
     inkscape:cy="25.283474"
     inkscape:window-width="1920"
     inkscape:window-height="1009"
     inkscape:window-x="-8"
     inkscape:window-y="-8"
     inkscape:window-maximized="1"
     inkscape:current-layer="svg4" />
  <path
     d="m 327.08799,-107.06191 q -25.45,0 -44.24521,-18.79647 -18.79647,-18.79522 -18.79647,-44.24522 v -113.21912 h 147.44391 v -160.57033 q -48.02233,6.6598 -96.67187,-8.1852 -48.65079,-14.84374 -83.64579,-49.58158 v -71.40752 H 164.0113 L 12,-725.3998 q 44.19504,-41.074 103.18489,-64.34505 58.98985,-23.27104 120.55381,-23.27104 42.91802,0 89.50527,12.67231 46.58725,12.67357 86.24625,40.62617 V -852 H 948 v 628.50259 q 0,48.85778 -33.7895,82.64601 -33.78823,33.78949 -82.32488,33.78949 z M 474.5319,-283.32272 h 303.9599 v 59.82531 q 0,23.19076 15.10091,38.29166 15.10215,15.10215 38.29291,15.10215 22.86963,0 37.97053,-15.10215 15.10215,-15.1009 15.10215,-38.29166 v -565.4609 H 474.5319 v 75.39662 l 289.03462,289.03462 v 44.90003 h -44.90128 l -155.29292,-154.97052 -24.8002,26.34316 q -15.27903,16.6288 -30.62078,26.7935 -15.34301,10.16344 -33.41944,18.20563 z M 191.80082,-636.10904 h 102.41342 v 104.60115 q 22.93361,14.79608 44.41958,21.13223 21.48724,6.33616 42.558,6.33616 32.58022,0 62.86481,-14.37709 30.28334,-14.37835 50.09716,-35.2208 l 24.31725,-25.86146 -86.9111,-86.91109 q -40.18335,-40.49571 -90.13123,-62.03061 -49.94788,-21.53365 -105.69001,-21.53365 -35.12421,0 -66.27687,8.94162 -31.15267,8.94162 -59.04004,23.22337 z m 523.64931,415.828 H 327.08799 v 50.17744 h 404.50923 q -7.71979,-8.94161 -11.93345,-22.06051 -4.21365,-13.11763 -4.21364,-28.11693 z M 327.088,-170.1036 v -50.17744 z"
     id="path2"
     style="stroke-width:1.25444" />
</svg>
