<svg xmlns="http://www.w3.org/2000/svg" height="40" viewBox="0 -960 960 960" width="40"><path d="M158.178-286.924q-11.998 0-20.088-8.116-8.089-8.117-8.089-20.115 0-11.999 8.116-20.088 8.117-8.09 20.115-8.09 11.999 0 20.088 8.117 8.09 8.116 8.09 20.115 0 11.998-8.117 20.088-8.116 8.089-20.115 8.089Zm0-164.871q-11.998 0-20.088-8.117-8.089-8.117-8.089-20.115 0-11.998 8.116-20.088 8.117-8.09 20.115-8.09 11.999 0 20.088 8.117 8.09 8.117 8.09 20.115 0 11.998-8.117 20.088-8.116 8.09-20.115 8.09Zm0-164.872q-11.998 0-20.088-8.117-8.089-8.116-8.089-20.115 0-11.998 8.116-20.088 8.117-8.089 20.115-8.089 11.999 0 20.088 8.116 8.09 8.117 8.09 20.115 0 11.999-8.117 20.088-8.116 8.09-20.115 8.09Zm131.31 326.666v-50.255h540.511v50.255H289.488Zm0-164.872v-50.254h540.511v50.254H289.488Zm0-164.871v-50.255h540.511v50.255H289.488Z"/></svg>